# xmcd
#
# Track frame offsets: 
#        150
#        16688
#        31908
#        51077
#        65150
#        76813
#        93131
#        106331
#        117470
#        137594
#        145920
#        154995
#
# Disc length: 2204 seconds
#
# Revision: 0
# Processed by: cddbd v1.5.2PL0 Copyright (c) Steve Scherf et al.
# Submitted via: ExactAudioCopy v1.0b3
#
DISCID=97089a0c
DTITLE=Fats Kaplin - World of Wonder
DYEAR=2009
DGENRE=Americana
TTITLE0=Cluck Old Hen
TTITLE1=Booth Shot Lincoln
TTITLE2=Pretty Polly [w. Kristi Rose]
TTITLE3=Colored Aristocracy
TTITLE4=The Miners' Waltz
TTITLE5=Gold [w. Kristi Rose]
TTITLE6=Rain on the Streets of Berlin
TTITLE7=Monkey in a Dogcart
TTITLE8=Shawnee Waltz
TTITLE9=Reprise \\ The Old 78
TTITLE10=Little Egypt
TTITLE11=Santa Anna's Retreat
EXTD=
EXTT0=
EXTT1=
EXTT2=
EXTT3=
EXTT4=
EXTT5=
EXTT6=
EXTT7=
EXTT8=
EXTT9=
EXTT10=
EXTT11=
PLAYORDER=
